<?xml version="1.0" encoding="utf-8"?>
<!-- Generator: Adobe Illustrator 22.0.0, SVG Export Plug-In . SVG Version: 6.00 Build 0)  -->
<svg version="1.1" xmlns="http://www.w3.org/2000/svg" xmlns:xlink="http://www.w3.org/1999/xlink" x="0px" y="0px"
	 viewBox="0 0 262 55" style="enable-background:new 0 0 262 55;" xml:space="preserve">
<style type="text/css">
	.st0{display:none;}
	.st1{fill-rule:evenodd;clip-rule:evenodd;fill:#FFFFFF;}
</style>
<g id="Layer_1" class="st0">
</g>
<g id="Layer_2">
	<g>
		<g>
			<path class="st1" d="M51.1,14.8L61.5,2.6H18.1v27h35.3V44H31.9l5.6-6.9h-9.3L17.1,51.2h43.1V22.5l-35.3-0.1V9.8h21.5l-4.1,5H51.1
				z M76.1,2.6v48.5H83V13.1l15.3,4.2l15.4-4.2v38.1h6.9V2.6L98.3,10L76.1,2.6z M64.7,51.1h6.9V2.6h-6.9V51.1z M228.7,15.9l0,8.8
				l2.9-2.9l4.6,0.3L228.7,15.9z M216.9,7.1h-5.2v5.2h5.2V7.1z M237.3,21.2h1l-1.2-1.4l-1.2,1.4h1v2.1h-2.2v-1l-1.4,1.2l1.4,1.2v-1
				h2.2v2.2h-1l1.2,1.4l1.2-1.4h-1v-2.2h2.1v1l1.4-1.2l-1.4-1.2v1h-2.1V21.2z M239.4,9.3h-19.9v1h19.9V9.3z M182.8,31.7v-29h-27.6
				v7.1h20.8v14.8h-20.8v7.1L181,51.1h10.9l-25.2-19.5H182.8z M226.3,45.7v5.8l8.7-6.6l-2.8-3.7L226.3,45.7z M239.9,41.2l7.2-5.5
				v-5.7l-10,7.6l-5.4-7.1h0h-5.7l15.7,20.8h5.8v0L239.9,41.2z M205.9,30.3V35h19l-3.5-4.6H205.9z M205.9,38l0,13.2l4.6,0v-8.5
				l10.6,0l-3.6-4.6L205.9,38z M247.1,7.1H242v5.2h5.2V7.1z M125.1,51.1h6.9V34.1h11.6v17.1h7V2.6h-25.5V51.1z M132,9.8h11.6v17.1
				H132V9.8z M196.8,30.3v14.8l-12.4-9.2h-7.8l19.9,15.3h5l0-20.8H196.8z M198.8,17.2l9.4-7h-6.7c-0.2,0.7-0.8,1.3-1.6,1.3
				c-0.9,0-1.6-0.7-1.6-1.6s0.7-1.6,1.6-1.6c0.8,0,1.5,0.6,1.6,1.3h6.7l-9.4-7l-8.1,4.1h-3.4v6.6h3.4L198.8,17.2z"/>
		</g>
	</g>
</g>
</svg>
